<svg xmlns="http://www.w3.org/2000/svg" xmlns:xlink="http://www.w3.org/1999/xlink" width="48px" height="16px" viewBox="0 0 48 16" version="1.1">
    <title>Group</title>
    <defs>
        <filter id="filter-1">
            <feColorMatrix in="SourceGraphic" type="matrix" values="0 0 0 0 0.462745 0 0 0 0 0.462745 0 0 0 0 0.462745 0 0 0 1.000000 0"/>
        </filter>
        <filter id="filter-2">
            <feColorMatrix in="SourceGraphic" type="matrix" values="0 0 0 0 0.972549 0 0 0 0 0.905882 0 0 0 0 0.109804 0 0 0 1.000000 0"/>
        </filter>
    </defs>
    <g id="Page-1" stroke="none" stroke-width="1" fill="none" fill-rule="evenodd">
        <g id="Desktop" transform="translate(-273.000000, -519.000000)">
            <g id="Group" transform="translate(273.000000, 519.000000)">
                <g id="checkbox-check">
                    <rect id="Rectangle" x="0" y="0" width="16" height="16"/>
                    <path d="M13.717068,5.7025 L6.98734171,11.7075 C6.61263535,12.0975 6.01310516,12.0975 5.6383988,11.7075 L2.28102977,8.1825 C1.90632341,7.7925 1.90632341,7.1625 2.28102977,6.7725 C2.65573614,6.3825 3.25526632,6.3825 3.62997269,6.7725 L6.32785851,9.5925 L12.3831134,4.2925 C12.7578197,3.9025 13.3573499,3.9025 13.7320563,4.2925 C14.0917744,4.6825 14.0917744,5.3125 13.717068,5.7025 Z" id="tick" fill="#63BA68" fill-rule="nonzero"/>
                </g>
                <g filter="url(#filter-1)" id="checkbox-check-copy">
                    <g transform="translate(16.000000, 0.000000)">
                        <rect id="Rectangle" x="0" y="0" width="16" height="16"/>
                        <path d="M13.717068,5.7025 L6.98734171,11.7075 C6.61263535,12.0975 6.01310516,12.0975 5.6383988,11.7075 L2.28102977,8.1825 C1.90632341,7.7925 1.90632341,7.1625 2.28102977,6.7725 C2.65573614,6.3825 3.25526632,6.3825 3.62997269,6.7725 L6.32785851,9.5925 L12.3831134,4.2925 C12.7578197,3.9025 13.3573499,3.9025 13.7320563,4.2925 C14.0917744,4.6825 14.0917744,5.3125 13.717068,5.7025 Z" id="tick" fill="#63BA68" fill-rule="nonzero"/>
                    </g>
                </g>
                <g filter="url(#filter-2)" id="checkbox-check-copy-2">
                    <g transform="translate(32.000000, 0.000000)">
                        <rect id="Rectangle" x="0" y="0" width="16" height="16"/>
                        <path d="M13.717068,5.7025 L6.98734171,11.7075 C6.61263535,12.0975 6.01310516,12.0975 5.6383988,11.7075 L2.28102977,8.1825 C1.90632341,7.7925 1.90632341,7.1625 2.28102977,6.7725 C2.65573614,6.3825 3.25526632,6.3825 3.62997269,6.7725 L6.32785851,9.5925 L12.3831134,4.2925 C12.7578197,3.9025 13.3573499,3.9025 13.7320563,4.2925 C14.0917744,4.6825 14.0917744,5.3125 13.717068,5.7025 Z" id="tick" fill="#63BA68" fill-rule="nonzero"/>
                    </g>
                </g>
            </g>
        </g>
    </g>
</svg>