<svg xmlns="http://www.w3.org/2000/svg" xmlns:xlink="http://www.w3.org/1999/xlink" width="132px" height="10px" viewBox="0 0 132 10" version="1.1">
    <title>list-check-new(1)</title>
    <g id="Page-1" stroke="none" stroke-width="1" fill="none" fill-rule="evenodd">
        <g id="Artboard" transform="translate(-55.000000, -132.000000)">
            <g id="list-check-new(1)" transform="translate(55.000000, 132.000000)">
                <path d="M9.8,0.3 L5,8.2 L2,4.7 C1.8,4.4 1.4,4.4 1.1,4.7 C0.8,5 0.8,5.4 1.1,5.7 L4.6,9.8 C4.8,9.9 5,10 5.1,10 C5.1,10 5.1,10 5.2,10 C5.4,10 5.6,9.9 5.7,9.7 L10.9,1.1 C11.1,0.8 11,0.3 10.7,0.1 C10.4,-0.1 10,2.77555756e-16 9.8,0.3 Z" id="Combined-Shape" fill="#EC0000"/>
                <path d="M69.8,0.3 L65,8.2 L62,4.7 C61.8,4.4 61.4,4.4 61.1,4.7 C60.8,5 60.8,5.4 61.1,5.7 L64.6,9.8 C64.8,9.9 65,10 65.1,10 C65.1,10 65.1,10 65.2,10 C65.4,10 65.6,9.9 65.7,9.7 L70.9,1.1 C71.1,0.8 71,0.3 70.7,0.1 C70.4,-0.1 70,2.77555756e-16 69.8,0.3 Z" id="Combined-Shape_1_" fill="#3466FF"/>
                <path d="M29.8,0.3 L25,8.2 L22,4.7 C21.8,4.4 21.4,4.4 21.1,4.7 C20.8,5 20.8,5.4 21.1,5.7 L24.6,9.8 C24.8,9.9 25,10 25.1,10 C25.1,10 25.1,10 25.2,10 C25.4,10 25.6,9.9 25.7,9.7 L30.9,1.1 C31.1,0.8 31,0.3 30.7,0.1 C30.4,-0.1 30,2.77555756e-16 29.8,0.3 Z" id="Combined-Shape_2_" fill="#1BB3BC"/>
                <path d="M109.8,0.3 L105,8.2 L102,4.7 C101.8,4.4 101.4,4.4 101.1,4.7 C100.8,5 100.8,5.4 101.1,5.7 L104.6,9.8 C104.7,9.9 104.9,10 105.1,10 C105.1,10 105.1,10 105.2,10 C105.4,10 105.6,9.9 105.7,9.7 L110.9,1.1 C111.1,0.8 111,0.3 110.7,0.1 C110.4,-0.1 110,-1.2490009e-16 109.8,0.3 Z" id="Combined-Shape_4_" fill="#FFCC32"/>
                <path d="M129.8,0.3 L125,8.2 L122,4.7 C121.8,4.4 121.4,4.4 121.1,4.7 C120.8,5 120.8,5.4 121.1,5.7 L124.6,9.8 C124.7,9.9 124.9,10 125.1,10 C125.1,10 125.1,10 125.2,10 C125.4,10 125.6,9.9 125.7,9.7 L130.9,1.1 C131.1,0.8 131,0.3 130.7,0.1 C130.4,-0.1 130,-1.2490009e-16 129.8,0.3 Z" id="Combined-Shape_5_" fill="#9E3667"/>
                <path d="M49.8,0.3 L45,8.2 L42,4.7 C41.8,4.4 41.4,4.4 41.1,4.7 C40.8,5 40.8,5.4 41.1,5.7 L44.6,9.8 C44.8,9.9 45,10 45.1,10 C45.1,10 45.1,10 45.2,10 C45.4,10 45.6,9.9 45.7,9.7 L50.9,1.1 C51.1,0.8 51,0.3 50.7,0.1 C50.4,-0.1 50,2.77555756e-16 49.8,0.3 Z" id="Combined-Shape_6_" fill="#ABC111"/>
                <path d="M89.8,0.3 L85,8.2 L82,4.7 C81.8,4.4 81.4,4.4 81.1,4.7 C80.8,5 80.8,5.4 81.1,5.7 L84.6,9.8 C84.8,9.9 85,10 85.1,10 C85.1,10 85.1,10 85.2,10 C85.4,10 85.6,9.9 85.7,9.7 L90.9,1.1 C91.1,0.8 91,0.3 90.7,0.1 C90.4,-0.1 90,2.77555756e-16 89.8,0.3 Z" id="Combined-Shape_7_" fill="#444444"/>
            </g>
        </g>
    </g>
</svg>