<svg xmlns="http://www.w3.org/2000/svg" xmlns:xlink="http://www.w3.org/1999/xlink" width="52px" height="41px" viewBox="0 0 52 41" version="1.1">
    <title>str-wc-escuela</title>
    <defs>
        <filter color-interpolation-filters="auto" id="filter-1">
            <feColorMatrix in="SourceGraphic" type="matrix" values="0 0 0 0 0.576471 0 0 0 0 0.000000 0 0 0 0 0.000000 0 0 0 1.000000 0"/>
        </filter>
    </defs>
    <g id="Page-1" stroke="none" stroke-width="1" fill="none" fill-rule="evenodd">
        <g filter="url(#filter-1)" id="str-wc-escuela">
            <g transform="translate(0.036184, 0.000000)">
                <path d="M50.7231882,16.1000176 L26.1075704,0.12145864 C25.8916439,-0.0404862135 25.6217358,-0.0404862135 25.4058093,0.12145864 L0.304356991,16.4239073 C-0.0195327165,16.6398337 -0.0735143345,17.0177051 0.0884305194,17.3415948 C0.142412137,17.3955764 0.196393755,17.5035396 0.304356991,17.5575212 L10.1290115,23.8733705 L10.1290115,31.7546868 C10.1290115,35.5334 17.0386586,38.502389 25.8916439,38.502389 C34.7446293,38.502389 41.6542764,35.5334 41.6542764,31.7546868 L41.6542764,23.7114257 L45.8648426,20.6884551 L45.8648426,34.5077493 L43.1657617,39.4740581 C43.0038168,39.7979478 43.11178,40.1758192 43.4356697,40.337764 C43.543633,40.3917456 43.6515962,40.3917456 43.7595595,40.3917456 L49.2117029,40.4997089 L49.2117029,40.4997089 C49.5895742,40.4997089 49.8594823,40.2298008 49.8594823,39.8519295 C49.8594823,39.7439662 49.8594823,39.636003 49.8055007,39.5280398 L47.1604014,34.5617309 L47.1604014,19.7707676 L50.7231882,17.1796499 C50.9930963,16.9637234 51.1010595,16.5858521 50.885133,16.2619624 C50.8311514,16.2079808 50.7771698,16.1539992 50.7231882,16.1000176 L50.7231882,16.1000176 Z M44.8391918,39.1501684 L46.512622,36.0732162 L48.1320705,39.1501684 L44.8391918,39.1501684 Z M25.8916439,37.2068302 C17.254585,37.2068302 11.4245703,34.399786 11.4245703,31.7546868 L11.4245703,19.3928963 C11.4245703,16.747797 17.254585,13.9407528 25.8916439,13.9407528 C34.5287028,13.9407528 40.3587175,16.747797 40.3587175,19.3928963 L40.3587175,23.1716095 C40.3047359,23.3335544 40.3047359,23.4954992 40.3587175,23.6574441 L40.3587175,31.7007051 C40.3587175,34.3458044 34.5287028,37.2068302 25.8916439,37.2068302 Z M41.6542764,22.0919772 L41.6542764,19.3928963 C41.6542764,15.614183 34.7446293,12.645194 25.8916439,12.645194 C17.0386586,12.645194 10.1290115,15.614183 10.1290115,19.3928963 L10.1290115,22.253922 L1.81584229,16.9637234 L25.7296991,1.41701747 L49.2117029,16.6398337 L41.6542764,22.0919772 Z" id="Trazado_19084" fill="#0D0D0D" fill-rule="nonzero"/>
                <path d="M25.5137726,26.4105066 C19.3058865,26.4105066 14.0696696,27.9759735 12.7201291,30.2432015 C12.5581843,30.5670912 12.6121659,30.9449625 12.9360556,31.160889 C13.2599453,31.3228338 13.6378166,31.2688522 13.8537431,30.9449625 C13.8537431,30.9449625 13.8537431,30.9449625 13.8537431,30.9449625 C14.7714306,29.3794956 19.1439417,27.760047 25.5137726,27.760047 C31.7756403,27.760047 36.1481513,29.3794956 37.1198204,30.8909809 C37.3357469,31.2148706 37.7136182,31.2688522 38.0375079,31.1069074 C38.3613977,30.9449625 38.4153793,30.5131096 38.2534344,30.1892198 L38.2534344,30.1892198 C36.7959307,27.9219919 31.667677,26.4105066 25.5137726,26.4105066 Z" id="Trazado_19085" fill="#0D0D0D" fill-rule="nonzero"/>
            </g>
        </g>
    </g>
</svg>