<svg xmlns="http://www.w3.org/2000/svg" xmlns:xlink="http://www.w3.org/1999/xlink" width="43px" height="52px" viewBox="0 0 43 52" version="1.1">
    <title>str-mercado</title>
    <defs>
        <filter color-interpolation-filters="auto" id="filter-1">
            <feColorMatrix in="SourceGraphic" type="matrix" values="0 0 0 0 0.576471 0 0 0 0 0.000000 0 0 0 0 0.000000 0 0 0 1.000000 0"/>
        </filter>
    </defs>
    <g id="Page-1" stroke="none" stroke-width="1" fill="none" fill-rule="evenodd">
        <g filter="url(#filter-1)" id="str-mercado">
            <g transform="translate(0.000000, 0.025000)">
                <path d="M33.8210526,42.7326316 L31.3515789,45.6315789 L25.1242105,40.4778947 C25.0168421,40.3705263 24.9094737,40.3705263 24.6947368,40.3705263 C24.5873684,40.3705263 24.5873684,40.3705263 24.48,40.3705263 C24.2652632,40.3705263 24.1578947,40.5852632 24.0505263,40.8 L22.9768421,43.4842105 L18.7894737,32.64 L30.6,35.1094737 L27.5936842,36.6126316 C27.3789474,36.72 27.2715789,36.9347368 27.2715789,37.1494737 C27.2715789,37.3642105 27.3789474,37.5789474 27.4863158,37.6863158 L33.8210526,42.7326316 Z M32.9621053,35.5389474 C33.1768421,35.4315789 33.3915789,35.1094737 33.2842105,34.8947368 C33.2842105,34.5726316 33.0694737,34.3578947 32.7473684,34.3578947 L17.9305263,31.1368421 C17.7157895,31.1368421 17.5010526,31.1368421 17.2863158,31.3515789 C17.1789474,31.5663158 17.1789474,31.7810526 17.1789474,31.9957895 L22.44,45.5242105 C22.5473684,45.7389474 22.7621053,45.9536842 23.0842105,45.9536842 C23.4063158,45.9536842 23.6210526,45.7389474 23.7284211,45.5242105 L25.0168421,42.0884211 L31.0294737,47.0273684 C31.3515789,47.2421053 31.6736842,47.2421053 31.9957895,46.92 L35.3242105,42.9473684 C35.4315789,42.9473684 35.4315789,42.7326316 35.4315789,42.6252632 C35.4315789,42.4105263 35.3242105,42.3031579 35.2168421,42.1957895 L29.2042105,37.3642105 L32.9621053,35.5389474 Z" id="Fill-1" fill="#444444"/>
                <path d="M13.2063158,32.2105263 L9.12631579,32.9621053 C8.80421053,33.0694737 8.58947368,33.3915789 8.58947368,33.7136842 C8.58947368,34.1431579 8.91157895,34.3578947 9.23368421,34.3578947 C9.23368421,34.3578947 9.34105263,34.3578947 9.34105263,34.3578947 L13.4210526,33.6063158 C13.6357895,33.6063158 13.8505263,33.3915789 13.9578947,33.1768421 C14.0652632,32.9621053 13.9578947,32.7473684 13.8505263,32.5326316 C13.6357895,32.2105263 13.4210526,32.2105263 13.2063158,32.2105263" id="Fill-3" fill="#444444"/>
                <path d="M11.8105263,24.9094737 C11.7031579,24.6947368 11.3810526,24.6947368 11.1663158,24.6947368 C10.9515789,24.8021053 10.7368421,24.9094737 10.7368421,25.1242105 C10.7368421,25.3389474 10.7368421,25.5536842 10.9515789,25.7684211 L13.9578947,28.7747368 C14.1726316,28.9894737 14.3873684,28.9894737 14.6021053,28.8821053 C14.8168421,28.7747368 15.0315789,28.6673684 15.0315789,28.4526316 C15.1389474,28.2378947 15.0315789,28.0231579 14.8168421,27.8084211 L11.8105263,24.9094737 Z" id="Fill-5" fill="#444444"/>
                <path d="M18.7894737,27.9157895 L18.7894737,27.9157895 C19.1115789,27.9157895 19.3263158,27.5936842 19.3263158,27.1642105 L19.3263158,22.2252632 C19.3263158,21.7957895 19.1115789,21.4736842 18.7894737,21.4736842 L18.7894737,21.4736842 C18.6821053,21.4736842 18.5747368,21.5810526 18.4673684,21.6884211 C18.2526316,21.7957895 18.2526316,22.0105263 18.2526316,22.2252632 L18.2526316,27.1642105 C18.2526316,27.5936842 18.5747368,27.9157895 18.7894737,27.9157895" id="Fill-7" fill="#444444"/>
                <g id="Group-11" fill="#444444">
                    <path d="M38.6526316,49.7115789 L3.97263158,49.7115789 C2.46947368,49.7115789 1.28842105,48.5305263 1.28842105,47.0273684 L7.51578947,15.2463158 C7.51578947,15.2463158 7.51578947,15.1389474 7.51578947,15.1389474 C7.51578947,13.7431579 10.2,12.4547368 11.7031579,12.4547368 L12.1326316,12.4547368 L12.1326316,18.7894737 C12.1326316,19.1115789 12.4547368,19.4336842 12.7768421,19.4336842 C13.0989474,19.4336842 13.4210526,19.1115789 13.4210526,18.7894737 L13.4210526,12.4547368 L28.8821053,12.4547368 L28.8821053,18.7894737 C28.8821053,19.1115789 29.2042105,19.4336842 29.5263158,19.4336842 C29.8484211,19.4336842 30.1705263,19.1115789 30.1705263,18.7894737 L30.1705263,12.4547368 L32.2105263,12.4547368 C32.9621053,12.4547368 33.6063158,12.7768421 34.1431579,13.2063158 C34.68,13.7431579 34.8947368,14.3873684 34.8947368,15.1389474 C34.8947368,15.1389474 34.8947368,15.2463158 34.8947368,15.2463158 L41.1221053,47.0273684 C41.3368421,48.5305263 40.0484211,49.7115789 38.6526316,49.7115789 L38.6526316,49.7115789 Z M13.5284211,9.12631579 C13.5284211,4.83157895 16.9642105,1.28842105 21.2589474,1.28842105 C25.5536842,1.28842105 28.9894737,4.83157895 28.9894737,9.12631579 L28.9894737,11.1663158 L13.5284211,11.1663158 L13.5284211,9.12631579 Z M42.6252632,46.92 L36.3978947,15.0315789 C36.3978947,12.8842105 34.5726316,11.0589474 32.4252632,11.0589474 L30.3852632,11.0589474 L30.3852632,9.12631579 C30.3852632,4.08 26.3052632,0 21.3663158,0 C16.4273684,0 12.3473684,4.08 12.3473684,9.12631579 L12.3473684,11.1663158 L11.8105263,11.1663158 C9.66315789,11.1663158 6.33473684,12.8842105 6.33473684,15.1389474 L0,46.92 C0,46.92 0,47.0273684 0,47.0273684 C0,49.2821053 1.82526316,51 3.97263158,51 L38.6526316,51 C40.8,51 42.6252632,49.1747368 42.6252632,47.0273684 C42.6252632,46.92 42.6252632,46.92 42.6252632,46.92 L42.6252632,46.92 Z" id="Fill-9"/>
                </g>
            </g>
        </g>
    </g>
</svg>