<svg xmlns="http://www.w3.org/2000/svg" xmlns:xlink="http://www.w3.org/1999/xlink" width="42px" height="52px" viewBox="0 0 42 52" version="1.1">
    <title>str-mentorias</title>
    <defs>
        <filter color-interpolation-filters="auto" id="filter-1">
            <feColorMatrix in="SourceGraphic" type="matrix" values="0 0 0 0 0.576471 0 0 0 0 0.000000 0 0 0 0 0.000000 0 0 0 1.000000 0"/>
        </filter>
    </defs>
    <g id="Page-1" stroke="none" stroke-width="1" fill="none" fill-rule="evenodd">
        <g filter="url(#filter-1)" id="str-mentorias">
            <g transform="translate(0.000000, 0.025000)">
                <path d="M39.3428571,7.70204082 C39.5510204,7.91020408 39.5510204,8.32653061 39.3428571,8.63877551 C39.2387755,8.74285714 39.0306122,8.84693878 38.9265306,8.84693878 C38.7183673,8.84693878 38.6142857,8.74285714 38.5102041,8.63877551 C33.9306122,3.95510204 27.5816327,1.35306122 21.0244898,1.35306122 C14.2591837,1.35306122 7.70204082,4.16326531 3.01836735,9.05510204 L9.05510204,9.05510204 C9.36734694,9.05510204 9.67959184,9.36734694 9.67959184,9.67959184 C9.67959184,9.99183673 9.36734694,10.3040816 9.05510204,10.3040816 L1.76938776,10.3040816 C1.45714286,10.3040816 1.14489796,9.99183673 1.14489796,9.67959184 L1.14489796,2.49795918 C1.14489796,2.28979592 1.24897959,2.18571429 1.35306122,2.08163265 C1.45714286,1.97755102 1.56122449,1.87346939 1.76938776,1.87346939 L1.87346939,1.87346939 C2.18571429,1.87346939 2.49795918,2.18571429 2.49795918,2.49795918 L2.49795918,7.80612245 C7.18163265,2.81020408 13.8428571,0 20.9204082,0 C27.7897959,0 34.4510204,2.70612245 39.3428571,7.70204082 Z M17.9020408,17.3816327 C17.9020408,18.9428571 19.255102,20.2959184 20.9204082,20.2959184 C22.5857143,20.2959184 23.8346939,18.9428571 23.8346939,17.3816327 C23.8346939,15.7163265 22.4816327,14.4673469 20.8163265,14.4673469 C19.255102,14.4673469 17.9020408,15.8204082 17.9020408,17.3816327 Z M25.1877551,17.3816327 C25.1877551,19.6714286 23.2102041,21.6489796 20.9204082,21.6489796 C18.5265306,21.6489796 16.6530612,19.7755102 16.6530612,17.3816327 C16.6530612,14.9877551 18.6306122,13.2183673 20.9204082,13.2183673 C23.3142857,13.2183673 25.1877551,15.0918367 25.1877551,17.3816327 Z M33.0979592,22.5857143 C33.0979592,24.1469388 34.4510204,25.5 36.1163265,25.5 C37.7816327,25.5 39.0306122,24.1469388 39.0306122,22.5857143 C39.0306122,20.9204082 37.677551,19.6714286 36.0122449,19.6714286 C34.3469388,19.6714286 32.9938776,21.0244898 33.0979592,22.5857143 Z M2.70612245,22.5857143 C2.70612245,24.1469388 4.05918367,25.5 5.7244898,25.5 C7.38979592,25.5 8.63877551,24.1469388 8.63877551,22.5857143 C8.63877551,20.9204082 7.28571429,19.6714286 5.62040816,19.6714286 C3.95510204,19.6714286 2.70612245,21.0244898 2.70612245,22.5857143 Z M40.2795918,22.5857143 C40.2795918,24.8755102 38.3020408,26.8530612 36.0122449,26.8530612 C33.6183673,26.8530612 31.744898,24.9795918 31.744898,22.5857143 C31.744898,20.2959184 33.722449,18.422449 36.0122449,18.422449 C38.4061224,18.3183673 40.2795918,20.1918367 40.2795918,22.5857143 Z M9.99183673,22.5857143 C9.99183673,24.8755102 8.01428571,26.8530612 5.7244898,26.8530612 C3.33061224,26.8530612 1.45714286,24.9795918 1.45714286,22.5857143 C1.45714286,20.1918367 3.43469388,18.422449 5.7244898,18.422449 C8.01428571,18.3183673 9.99183673,20.1918367 9.99183673,22.5857143 Z M8.53469388,27.8938776 C9.99183673,27.8938776 11.2408163,29.0387755 11.2408163,30.6 L11.2408163,34.555102 C11.2408163,34.7632653 11.1367347,34.8673469 11.0326531,34.9714286 C10.9285714,35.0755102 10.7204082,35.1795918 10.6163265,35.1795918 C10.3040816,35.1795918 9.99183673,34.8673469 9.99183673,34.555102 L9.99183673,30.6 C9.99183673,29.7673469 9.36734694,29.1428571 8.53469388,29.1428571 L2.70612245,29.1428571 C1.87346939,29.1428571 1.24897959,29.7673469 1.24897959,30.4959184 L1.24897959,34.4510204 C1.24897959,34.7632653 0.936734694,35.0755102 0.624489796,35.0755102 C0.312244898,35.0755102 0,34.7632653 0,34.4510204 L0,30.6 C0,29.1428571 1.24897959,27.8938776 2.70612245,27.8938776 L8.53469388,27.8938776 Z M38.9265306,27.8938776 C40.3836735,27.8938776 41.6326531,29.0387755 41.6326531,30.6 L41.6326531,34.555102 C41.6326531,34.7632653 41.5285714,34.8673469 41.4244898,34.9714286 C41.3204082,35.0755102 41.1122449,35.1795918 41.0081633,35.1795918 C40.6959184,35.1795918 40.3836735,34.8673469 40.3836735,34.555102 L40.3836735,30.6 C40.3836735,29.8714286 39.7591837,29.2469388 38.9265306,29.2469388 L33.0979592,29.2469388 C32.2653061,29.2469388 31.6408163,29.8714286 31.6408163,30.6 L31.6408163,34.555102 C31.6408163,34.8673469 31.3285714,35.1795918 31.0163265,35.1795918 C30.7040816,35.1795918 30.3918367,34.8673469 30.3918367,34.555102 L30.3918367,30.6 C30.3918367,29.1428571 31.6408163,27.8938776 33.0979592,27.8938776 L38.9265306,27.8938776 Z M25.3959184,22.4816327 C26.8530612,22.4816327 28.1020408,23.6265306 28.1020408,25.1877551 L28.1020408,34.6591837 C28.1020408,34.8673469 27.9979592,34.9714286 27.8938776,35.0755102 C27.7897959,35.1795918 27.5816327,35.2836735 27.477551,35.2836735 C27.2693878,35.2836735 27.1653061,35.1795918 27.0612245,35.0755102 C26.9571429,34.9714286 26.8530612,34.7632653 26.8530612,34.6591837 L26.8530612,25.1877551 C26.8530612,24.4591837 26.2285714,23.8346939 25.3959184,23.8346939 L16.444898,23.8346939 C15.6122449,23.8346939 14.9877551,24.4591837 14.9877551,25.1877551 L14.9877551,34.6591837 C14.9877551,34.9714286 14.6755102,35.2836735 14.3632653,35.2836735 C14.0510204,35.2836735 13.7387755,34.9714286 13.7387755,34.6591837 L13.7387755,25.1877551 C13.7387755,23.7306122 14.9877551,22.4816327 16.444898,22.4816327 L25.3959184,22.4816327 Z M39.655102,41.2163265 C39.9673469,41.2163265 40.2795918,41.5285714 40.2795918,41.8408163 L40.2795918,49.022449 C40.2795918,49.2306122 40.1755102,49.3346939 40.0714286,49.4387755 C39.9673469,49.5428571 39.7591837,49.6469388 39.655102,49.6469388 C39.3428571,49.6469388 39.0306122,49.3346939 39.0306122,49.022449 L39.0306122,43.4020408 C34.1387755,48.2938776 27.5816327,51 20.6081633,51 C13.6346939,51 6.97346939,48.2938776 2.18571429,43.2979592 C1.97755102,43.0897959 1.97755102,42.6734694 2.18571429,42.3612245 C2.28979592,42.2571429 2.49795918,42.1530612 2.60204082,42.1530612 C2.81020408,42.1530612 2.91428571,42.2571429 3.01836735,42.3612245 C7.59795918,47.044898 13.9469388,49.6469388 20.5040816,49.6469388 C27.0612245,49.6469388 33.4102041,47.044898 37.9897959,42.4653061 L32.2653061,42.4653061 C31.9530612,42.4653061 31.6408163,42.1530612 31.6408163,41.8408163 C31.6408163,41.5285714 31.9530612,41.2163265 32.2653061,41.2163265 L39.655102,41.2163265 Z" id="Fill-1" fill="#444444"/>
            </g>
        </g>
    </g>
</svg>