<svg xmlns="http://www.w3.org/2000/svg" xmlns:xlink="http://www.w3.org/1999/xlink" width="42px" height="42px" viewBox="0 0 42 42" version="1.1">
    <title>str-toolkit</title>
    <defs>
        <filter color-interpolation-filters="auto" id="filter-1">
            <feColorMatrix in="SourceGraphic" type="matrix" values="0 0 0 0 0.576471 0 0 0 0 0.000000 0 0 0 0 0.000000 0 0 0 1.000000 0"/>
        </filter>
    </defs>
    <g id="Page-1" stroke="none" stroke-width="1" fill="none" fill-rule="evenodd">
        <g filter="url(#filter-1)" id="str-toolkit">
            <g transform="translate(0.000000, 0.000000)">
                <path d="M4.5,1.39285714 C2.78571429,1.39285714 1.39285714,2.78571429 1.39285714,4.5 C1.39285714,6.21428571 2.78571429,7.60714286 4.5,7.60714286 L4.5,7.60714286 L4.5,7.60714286 L4.60714286,7.60714286 C6.21428571,7.5 7.60714286,6.10714286 7.60714286,4.5 C7.60714286,2.78571429 6.21428571,1.39285714 4.5,1.39285714 M37.2857143,1.39285714 C35.5714286,1.39285714 34.1785714,2.78571429 34.1785714,4.5 C34.1785714,6.21428571 35.5714286,7.60714286 37.2857143,7.60714286 C39,7.60714286 40.3928571,6.21428571 40.3928571,4.5 C40.3928571,2.78571429 39,1.39285714 37.2857143,1.39285714 M20.8928571,1.39285714 C19.1785714,1.39285714 17.7857143,2.78571429 17.7857143,4.5 C17.7857143,6.21428571 19.1785714,7.60714286 20.8928571,7.60714286 C21.5357143,7.60714286 22.1785714,7.39285714 22.7142857,7.07142857 C22.7142857,7.07142857 22.8214286,6.96428571 22.8214286,6.96428571 C23.5714286,6.42857143 24,5.46428571 24,4.5 C24,2.78571429 22.6071429,1.39285714 20.8928571,1.39285714 M37.2857143,0 C39.75,0 41.7857143,2.03571429 41.7857143,4.5 C41.7857143,6.96428571 39.75,9 37.2857143,9 C34.8214286,9 32.7857143,6.96428571 32.7857143,4.5 C32.7857143,2.03571429 34.8214286,0 37.2857143,0 M37.2857143,17.7857143 L37.2857143,17.7857143 C36.4285714,17.7857143 35.6785714,18.1071429 35.0357143,18.75 C35.0357143,18.75 35.0357143,18.8571429 34.9285714,18.8571429 C34.7142857,19.0714286 34.5,19.3928571 34.3928571,19.7142857 C33.9642857,20.8928571 34.1785714,22.1785714 35.0357143,23.1428571 C35.8928571,24 37.2857143,24.3214286 38.4642857,23.7857143 C39.6428571,23.3571429 40.3928571,22.1785714 40.3928571,20.8928571 C40.3928571,19.1785714 39,17.7857143 37.2857143,17.7857143 M20.8928571,17.7857143 L20.8928571,17.7857143 C19.6071429,17.7857143 18.5357143,18.5357143 18,19.7142857 C17.5714286,20.8928571 17.7857143,22.1785714 18.6428571,23.1428571 C19.5,24 20.8928571,24.3214286 22.0714286,23.7857143 C23.25,23.3571429 24,22.1785714 24,20.8928571 C24,19.1785714 22.6071429,17.7857143 20.8928571,17.7857143 M4.5,17.7857143 L4.5,17.7857143 L4.5,17.7857143 C3.21428571,17.7857143 2.14285714,18.5357143 1.60714286,19.7142857 C1.17857143,20.8928571 1.39285714,22.1785714 2.25,23.1428571 C3.10714286,24 4.5,24.3214286 5.67857143,23.7857143 C5.78571429,23.7857143 5.89285714,23.6785714 6,23.6785714 C6,23.6785714 6,23.6785714 6.10714286,23.6785714 C7.07142857,23.1428571 7.71428571,22.0714286 7.71428571,21 C7.60714286,19.1785714 6.21428571,17.7857143 4.5,17.7857143 M20.8928571,0 C23.3571429,0 25.3928571,2.03571429 25.3928571,4.5 C25.3928571,5.67857143 24.9642857,6.75 24.2142857,7.5 L34.7142857,17.3571429 C36,16.3928571 37.6071429,16.1785714 39.1071429,16.7142857 C40.8214286,17.3571429 41.8928571,19.0714286 41.8928571,20.8928571 C41.8928571,23.3571429 39.8571429,25.3928571 37.3928571,25.3928571 C35.5714286,25.3928571 33.9642857,24.3214286 33.3214286,22.6071429 C32.7857143,21.2142857 32.8928571,19.6071429 33.75,18.3214286 L23.1428571,8.35714286 C22.5,8.67857143 21.75,8.89285714 21,8.89285714 C18.5357143,8.89285714 16.5,6.85714286 16.5,4.39285714 C16.5,1.92857143 18.4285714,0 20.8928571,0 M22.6071429,16.7142857 C24.3214286,17.3571429 25.3928571,19.0714286 25.3928571,20.8928571 C25.3928571,23.3571429 23.3571429,25.3928571 20.8928571,25.3928571 C19.0714286,25.3928571 17.4642857,24.3214286 16.8214286,22.6071429 C16.1785714,20.8928571 16.5,18.9642857 17.7857143,17.7857143 C19.0714286,16.5 20.8928571,16.0714286 22.6071429,16.7142857 M37.2857143,34.1785714 C36,34.1785714 34.9285714,34.9285714 34.3928571,36.1071429 C34.2857143,36.5357143 34.1785714,36.8571429 34.1785714,37.2857143 C34.1785714,37.2857143 34.1785714,37.2857143 34.1785714,37.2857143 L34.1785714,37.2857143 C34.1785714,38.1428571 34.5,38.8928571 35.0357143,39.4285714 C35.8928571,40.2857143 37.2857143,40.6071429 38.4642857,40.0714286 C39.6428571,39.6428571 40.3928571,38.4642857 40.3928571,37.1785714 C40.3928571,35.5714286 39,34.1785714 37.2857143,34.1785714 M20.8928571,34.1785714 C19.9285714,34.1785714 18.9642857,34.6071429 18.4285714,35.4642857 C18.4285714,35.4642857 18.4285714,35.4642857 18.4285714,35.5714286 C18.3214286,35.7857143 18.2142857,36 18.1071429,36.2142857 C17.6785714,37.3928571 17.8928571,38.6785714 18.75,39.6428571 C19.6071429,40.5 21,40.8214286 22.1785714,40.2857143 C23.3571429,39.8571429 24.1071429,38.6785714 24.1071429,37.3928571 C24.1071429,37.3928571 24.1071429,37.3928571 24.1071429,37.3928571 L24.1071429,37.3928571 L24.1071429,37.2857143 C23.8928571,35.5714286 22.6071429,34.1785714 20.8928571,34.1785714 M4.5,34.1785714 C3.21428571,34.1785714 2.14285714,34.9285714 1.60714286,36.1071429 C1.17857143,37.2857143 1.39285714,38.5714286 2.25,39.5357143 C3.10714286,40.3928571 4.5,40.7142857 5.67857143,40.1785714 C6.85714286,39.75 7.60714286,38.5714286 7.60714286,37.2857143 C7.60714286,35.5714286 6.21428571,34.1785714 4.5,34.1785714 M4.5,0 C6.96428571,0 9,2.03571429 9,4.5 C9,6.75 7.39285714,8.57142857 5.25,8.89285714 L5.25,16.5 C5.57142857,16.5 5.89285714,16.6071429 6.32142857,16.8214286 C8.03571429,17.4642857 9.10714286,19.1785714 9.10714286,21 C9.10714286,22.3928571 8.46428571,23.5714286 7.5,24.4285714 L17.8928571,34.2857143 L18,34.1785714 C19.2857143,33 21.1071429,32.6785714 22.7142857,33.3214286 C24.2142857,33.9642857 25.1785714,35.25 25.3928571,36.75 L33,36.75 C33.1071429,35.7857143 33.5357143,34.9285714 34.2857143,34.2857143 C35.5714286,33 37.5,32.6785714 39.1071429,33.3214286 C40.8214286,33.9642857 41.8928571,35.6785714 41.8928571,37.5 C41.8928571,39.9642857 39.8571429,42 37.3928571,42 C35.5714286,42 33.9642857,40.9285714 33.3214286,39.2142857 C33.2142857,38.8928571 33.1071429,38.5714286 33,38.1428571 L25.3928571,38.1428571 C25.0714286,40.2857143 23.25,41.8928571 21,41.8928571 C19.1785714,41.8928571 17.5714286,40.8214286 16.9285714,39.1071429 C16.3928571,37.8214286 16.5,36.4285714 17.1428571,35.25 L6.10714286,25.0714286 C5.57142857,25.2857143 5.03571429,25.3928571 4.39285714,25.3928571 C2.57142857,25.3928571 0.964285714,24.3214286 0.321428571,22.6071429 C-0.321428571,20.8928571 0,18.9642857 1.28571429,17.7857143 C1.92857143,17.1428571 2.89285714,16.7142857 3.75,16.5 L3.75,8.89285714 C1.60714286,8.57142857 0,6.75 0,4.5 C0,2.03571429 2.03571429,0 4.5,0 M6.21428571,33.2142857 C7.92857143,33.8571429 9,35.5714286 9,37.3928571 C9,39.8571429 6.96428571,41.8928571 4.5,41.8928571 C2.67857143,41.8928571 1.07142857,40.8214286 0.428571429,39.1071429 C-0.214285714,37.3928571 0.107142857,35.4642857 1.39285714,34.2857143 C2.57142857,32.8928571 4.5,32.4642857 6.21428571,33.2142857" id="Fill-1" fill="#444444"/>
            </g>
        </g>
    </g>
</svg>